<svg width="24" height="24" viewBox="0 0 24 24" fill="none" xmlns="http://www.w3.org/2000/svg">
<path d="M10.6489 15.9317C8.3286 15.6504 6.69385 13.9805 6.69385 11.8184C6.69385 10.9395 7.01025 9.99024 7.5376 9.35743C7.30907 8.77734 7.34423 7.54687 7.60791 7.03712C8.31104 6.94922 9.26025 7.31837 9.82275 7.82812C10.4907 7.61719 11.1938 7.51172 12.0552 7.51172C12.9165 7.51172 13.6196 7.61719 14.2524 7.81056C14.7974 7.31837 15.7642 6.94922 16.4673 7.03712C16.7134 7.51172 16.7485 8.74219 16.52 9.33984C17.0825 10.0078 17.3813 10.9043 17.3813 11.8184C17.3813 13.9805 15.7466 15.6152 13.3911 15.9141C13.9888 16.3008 14.3931 17.1445 14.3931 18.1113V19.9395C14.3931 20.4668 14.8325 20.7656 15.3599 20.5547C18.5415 19.3418 21.0376 16.1602 21.0376 12.2227C21.0376 7.24806 16.9946 3.1875 12.02 3.1875C7.04541 3.1875 3.0376 7.24804 3.0376 12.2227C3.0376 16.125 5.5161 19.3594 8.85595 20.5723C9.33057 20.748 9.7876 20.4317 9.7876 19.9571V18.5508C9.5415 18.6562 9.2251 18.7266 8.94385 18.7266C7.78369 18.7266 7.09814 18.0938 6.60595 16.916C6.4126 16.4414 6.20166 16.1602 5.79735 16.1074C5.58642 16.0898 5.5161 16.002 5.5161 15.8965C5.5161 15.6856 5.86767 15.5273 6.21923 15.5273C6.729 15.5273 7.16845 15.8438 7.62548 16.4942C7.97704 17.0039 8.34619 17.2324 8.78564 17.2324C9.2251 17.2324 9.50635 17.0742 9.91064 16.6699C10.2095 16.3711 10.438 16.1074 10.6489 15.9317Z" fill="#F2EFE8"/>
</svg>
