<svg width="24" height="24" viewBox="0 0 24 24" fill="none" xmlns="http://www.w3.org/2000/svg">
<g clip-path="url(#clip0_143_3397)">
<g clip-path="url(#clip1_143_3397)">
<path d="M8.3938 5.05251C7.5958 5.09014 7.05086 5.21751 6.57443 5.40464C6.08143 5.59682 5.66349 5.85464 5.24768 6.27195C4.83193 6.68926 4.5758 7.10745 4.38505 7.60132C4.20043 8.0787 4.0753 8.62414 4.04005 9.42257C4.0048 10.221 3.99699 10.4777 4.00093 12.5144C4.0048 14.5511 4.0138 14.8064 4.05249 15.6065C4.09061 16.4043 4.21749 16.9491 4.40468 17.4257C4.59718 17.9188 4.85468 18.3365 5.27218 18.7524C5.68961 19.1684 6.10749 19.4239 6.60249 19.6149C7.07949 19.7993 7.62505 19.925 8.42336 19.9599C9.22168 19.9949 9.47861 20.0031 11.5147 19.9991C13.5509 19.9953 13.8072 19.9862 14.6071 19.9483C15.4071 19.9103 15.949 19.7825 16.4257 19.5962C16.9188 19.4033 17.3369 19.1462 17.7525 18.7286C18.1681 18.311 18.424 17.8925 18.6147 17.3984C18.7995 16.9214 18.925 16.3759 18.9597 15.5781C18.9947 14.7776 19.0029 14.522 18.999 12.4856C18.9951 10.4492 18.9859 10.1939 18.948 9.39407C18.91 8.59426 18.783 8.05114 18.5959 7.57426C18.4032 7.0812 18.1459 6.66376 17.7287 6.24751C17.3114 5.83126 16.8925 5.57551 16.3986 5.38532C15.9212 5.20064 15.376 5.07482 14.5777 5.04032C13.7794 5.00582 13.5225 4.99689 11.4856 5.00089C9.44874 5.00476 9.19374 5.01351 8.3938 5.05251ZM8.48143 18.6107C7.75018 18.5789 7.35311 18.4574 7.08849 18.3557C6.73811 18.2207 6.48849 18.0575 6.2248 17.7963C5.96105 17.5352 5.79911 17.2847 5.6623 16.9351C5.55955 16.6704 5.4358 16.2738 5.40161 15.5426C5.36443 14.7523 5.35661 14.5149 5.35224 12.5126C5.34786 10.5103 5.35555 10.2732 5.39018 9.48257C5.42143 8.75195 5.54368 8.35445 5.64518 8.08995C5.78018 7.73914 5.9428 7.48995 6.20455 7.22645C6.4663 6.96289 6.71605 6.80057 7.06599 6.66376C7.33036 6.56057 7.72693 6.43789 8.45786 6.40307C9.2488 6.36557 9.4858 6.35807 11.4879 6.3537C13.4899 6.34932 13.7275 6.35682 14.5188 6.3917C15.2494 6.42345 15.6471 6.54451 15.9113 6.6467C16.2618 6.7817 16.5113 6.94382 16.7748 7.20607C17.0384 7.4682 17.2008 7.71707 17.3376 8.06776C17.4409 8.33132 17.5637 8.72776 17.5982 9.4592C17.6358 10.2501 17.6444 10.4873 17.6479 12.4892C17.6515 14.4911 17.6445 14.7288 17.6098 15.5192C17.5779 16.2504 17.4567 16.6476 17.3548 16.9126C17.2198 17.2628 17.0571 17.5126 16.7952 17.7759C16.5333 18.0394 16.2839 18.2016 15.9337 18.3384C15.6697 18.4415 15.2727 18.5645 14.5424 18.5993C13.7514 18.6365 13.5144 18.6443 11.5116 18.6487C9.50874 18.6531 9.27236 18.6449 8.48143 18.6107ZM14.5956 8.49151C14.5959 8.66953 14.649 8.84346 14.7481 8.99131C14.8473 9.13916 14.9881 9.25428 15.1527 9.32211C15.3173 9.38994 15.4983 9.40744 15.6728 9.37239C15.8473 9.33735 16.0076 9.25132 16.1332 9.12521C16.2588 8.9991 16.3443 8.83855 16.3787 8.66389C16.413 8.48922 16.3949 8.30828 16.3264 8.14395C16.258 7.97962 16.1423 7.83927 15.9941 7.74067C15.8459 7.64207 15.6718 7.58964 15.4937 7.59001C15.2551 7.59051 15.0264 7.68575 14.858 7.85481C14.6896 8.02386 14.5952 8.25288 14.5956 8.49151ZM7.64905 12.5075C7.65324 14.6345 9.38068 16.3548 11.5072 16.3508C13.6338 16.3468 15.3553 14.6195 15.3513 12.4925C15.3472 10.3655 13.6194 8.6447 11.4926 8.64889C9.36568 8.65307 7.64505 10.3808 7.64905 12.5075ZM8.99999 12.5048C8.99901 12.0104 9.14468 11.5267 9.41857 11.1151C9.69246 10.7034 10.0823 10.3822 10.5387 10.1921C10.9951 10.002 11.4977 9.95146 11.9828 10.047C12.468 10.1425 12.9139 10.3797 13.2642 10.7286C13.6146 11.0775 13.8535 11.5225 13.951 12.0073C14.0484 12.492 13.9999 12.9948 13.8116 13.452C13.6233 13.9092 13.3036 14.3003 12.8931 14.5758C12.4825 14.8513 11.9994 14.9989 11.505 14.9999C11.1767 15.0006 10.8514 14.9366 10.5478 14.8116C10.2443 14.6865 9.96828 14.5029 9.73566 14.2712C9.50304 14.0395 9.31834 13.7643 9.19212 13.4612C9.06589 13.1581 9.0006 12.8331 8.99999 12.5048Z" fill="#F2EFE8"/>
</g>
</g>
<defs>
<clipPath id="clip0_143_3397">
<rect width="24" height="24" fill="white"/>
</clipPath>
<clipPath id="clip1_143_3397">
<rect width="15" height="15" fill="white" transform="translate(4 5)"/>
</clipPath>
</defs>
</svg>
